PathFileType	4	(X/Y/Z)	..\data\2014025\dynamic\2014025_C5_02.trc
DataRate	CameraRate	NumFrames	NumMarkers	Units	OrigDataRate	OrigDataStartFrame	OrigNumFrames
100.000000	100.000000	4	52	mm	100.000000	46	125
Frame#	Time	L_IAS			L_IPS			R_IPS			R_IAS			L_FTC			L_FLE			L_FME			L_FAX			L_TTC			L_FAL			L_TAM			L_FCC			L_FM1			L_FM2			L_FM5			R_FTC			R_FLE			R_FME			R_FAX			R_TTC			R_FAL			R_TAM			R_FCC			R_FM1			R_FM2			R_FM5			CV7			TV10			SXS			SJN			L_SIA			L_SRS			L_SAA			L_SAE			L_HLE			L_HME			L_UOA			L_RSP			L_UHE			L_HM2			L_HM5			R_SIA			R_SRS			R_SAA			R_SAE			R_HLE			R_HME			R_UOA			R_RSP			R_UHE			R_HM2			R_HM5			
		X1	Y1	Z1	X2	Y2	Z2	X3	Y3	Z3	X4	Y4	Z4	X5	Y5	Z5	X6	Y6	Z6	X7	Y7	Z7	X8	Y8	Z8	X9	Y9	Z9	X10	Y10	Z10	X11	Y11	Z11	X12	Y12	Z12	X13	Y13	Z13	X14	Y14	Z14	X15	Y15	Z15	X16	Y16	Z16	X17	Y17	Z17	X18	Y18	Z18	X19	Y19	Z19	X20	Y20	Z20	X21	Y21	Z21	X22	Y22	Z22	X23	Y23	Z23	X24	Y24	Z24	X25	Y25	Z25	X26	Y26	Z26	X27	Y27	Z27	X28	Y28	Z28	X29	Y29	Z29	X30	Y30	Z30	X31	Y31	Z31	X32	Y32	Z32	X33	Y33	Z33	X34	Y34	Z34	X35	Y35	Z35	X36	Y36	Z36	X37	Y37	Z37	X38	Y38	Z38	X39	Y39	Z39	X40	Y40	Z40	X41	Y41	Z41	X42	Y42	Z42	X43	Y43	Z43	X44	Y44	Z44	X45	Y45	Z45	X46	Y46	Z46	X47	Y47	Z47	X48	Y48	Z48	X49	Y49	Z49	X50	Y50	Z50	X51	Y51	Z51	X52	Y52	Z52	

47	0.46	591.7069702148439	854.9282226562502	-421.1674194335939	376.9572143554688	932.6255493164065	-315.3354187011719	384.6039123535157	919.4121093750002	-200.5336608886719	617.7253417968751	880.7082519531252	-146.8147277832032	463.6435852050782	815.9324951171877	-486.8490600585939	376.0068359375001	448.2376403808595	-429.158416748047	378.6431274414063	430.580047607422	-270.2202758789063	327.1037902832032	411.9367065429689	-426.7380981445314	365.2968444824219	348.6038818359376	-376.8993530273438	112.2950057983399	133.3299713134766	-373.4390258789063	133.0037231445313	134.4848327636719	-288.3159484863282	57.41036605834962	126.0657043457032	-319.7052612304688	197.9862060546876	19.57579040527344	-270.7937927246094	206.8697814941407	33.82456207275391	-329.2559509277344	161.552474975586	26.18821144104005	-375.9445190429688	554.4237670898439	807.8295898437502	-60.23461914062501	694.7268066406251	465.8653564453126	-124.5801849365235	694.3920898437501	463.4602966308595	-290.8495178222657	686.9234008789064	392.5279846191407	-123.261215209961	764.4881591796876	406.0665893554689	-189.9350891113282	770.6121215820315	74.59450531005861	-170.7137756347657	794.5881958007815	90.2601776123047	-256.8336791992188	748.9337768554689	17.91841888427735	-235.0861816406251	929.9222412109377	58.68041992187501	-229.6246185302735	916.4884033203127	79.89880371093751	-177.8740844726563	876.762390136719	46.50168991088868	-136.27734375	461.7559204101564	1378.633422851563	-280.5360107421876	385.3673400878907	1153.58935546875	-296.4443969726563	641.8496704101564	1160.03271484375	-267.1361083984376	577.0369873046876	1298.64892578125	-269.4845886230469	395.8600463867189	1202.968505859375	-404.3338928222657	427.8943786621095	1336.165161132813	-376.0896911621094	482.9901123046876	1345.546508789063	-445.478485107422	534.8569946289064	1354.46533203125	-453.523162841797	660.1231689453126	1084.665283203125	-557.1342163085939	618.8307495117189	1032.260131835938	-491.991668701172	633.1099853515626	1042.554321289063	-537.3991699218751	855.288024902344	938.883972167969	-499.1357727050782	820.1312255859377	907.2023925781252	-565.5203247070314	926.3791503906252	900.3103027343752	-520.7953491210939	864.5936279296877	869.5274047851565	-587.8348388671876	370.0139770507813	1183.478271484375	-196.9889526367188	413.5415649414064	1318.279052734375	-200.7588958740235	449.2298583984376	1330.225830078125	-130.5345001220703	495.7958068847657	1332.422485351563	-105.2555465698242	379.1186218261719	1046.222534179688	-17.23965072631836	388.9498901367189	1015.489685058594	-100.015983581543	368.7730712890626	1021.779724121094	-52.06715774536134	391.7760009765626	799.9692993164065	43.25074005126954	334.5979614257813	826.0767211914065	65.37160491943361	360.3171997070313	729.7397460937501	73.77170562744142	289.3966674804688	796.9708251953127	66.88182067871095	
48	0.47	612.0626220703126	854.5834960937502	-419.2818298339845	396.9146423339845	930.5172119140627	-314.7229919433594	405.2302551269532	919.107116699219	-199.9099884033204	639.1591796875001	882.3572998046877	-147.1281280517578	482.8906250000001	813.4854125976565	-484.8873596191407	401.0597534179689	444.6754455566407	-431.0601501464845	406.5603637695314	424.7767333984376	-272.9082641601563	351.8713378906251	409.0578918457032	-428.827362060547	388.4389038085939	344.4055480957032	-380.2869567871094	125.0442504882813	141.7988739013672	-374.8180236816407	146.5102844238282	141.3626556396485	-290.1945800781251	71.26972961425783	139.1771545410157	-320.6447448730469	199.7367706298829	21.98039245605469	-270.9731445312501	208.9476165771485	34.58334350585938	-329.6138916015626	164.5682067871094	29.6810646057129	-375.9998168945313	576.3179321289064	810.2779541015627	-59.20834732055665	714.7569580078126	466.493621826172	-124.3733215332032	715.0104980468751	465.1752014160157	-290.0343627929688	705.4393310546876	393.213592529297	-123.1460189819336	782.5762939453127	404.5250244140626	-190.3865203857422	774.833923339844	72.55733489990236	-171.8171844482422	799.0455322265627	86.64554595947267	-258.0224609375001	749.5615234375001	17.04187202453614	-235.3519592285157	933.3536376953127	48.23149871826173	-231.0310821533204	921.1140136718752	70.65041351318361	-178.8441772460938	879.390319824219	39.89507293701173	-137.1887359619141	481.3333740234376	1378.252685546875	-277.9489746093751	405.2476806640626	1152.947509765625	-294.7434692382813	661.9620971679689	1160.056640625	-266.0223083496094	596.7881469726564	1298.361694335938	-267.5124511718751	415.3655090332032	1202.640625	-402.361541748047	447.0668334960939	1335.833862304688	-373.5625610351563	501.9764404296876	1345.455810546875	-443.1391601562501	553.7199096679689	1354.56591796875	-451.2930908203126	679.2347412109376	1084.824951171875	-554.8106689453126	637.7716674804689	1032.37841796875	-489.5387573242189	651.6441650390626	1042.894409179688	-535.1417846679689	872.9734497070315	936.6463623046877	-499.7258300781251	836.6523437500002	905.5318603515627	-565.5485839843751	943.3528442382815	898.029724121094	-522.4602050781251	880.545349121094	867.6708984375002	-588.5627441406251	389.9076538085939	1182.191040039063	-194.9354705810547	433.3124389648439	1317.03955078125	-198.4325561523438	469.1221313476564	1328.67236328125	-128.1382446289063	515.3576049804689	1331.230590820313	-103.0096893310547	400.3435363769532	1044.192749023438	-15.39831733703614	411.7861633300782	1012.965698242188	-98.03337860107425	390.4251708984376	1019.470031738281	-50.25740432739259	415.0112609863282	798.3623657226565	45.88453674316407	357.4635925292969	823.886657714844	67.64994049072267	384.1542358398439	727.9161376953126	76.57535552978517	312.7435302734376	794.2539062500002	68.9166946411133	
49	0.48	632.4765625000001	854.4522094726565	-416.9758911132814	416.6908569335939	928.443298339844	-314.8826293945313	425.484344482422	919.3567504882815	-199.9425659179688	660.2691040039064	884.3333129882815	-147.3453979492188	502.7616271972657	810.717468261719	-483.2100830078126	427.7575988769532	440.9641418457032	-432.9521789550782	436.2380371093751	418.7969665527345	-275.6023254394532	378.4428710937501	406.0215759277345	-430.9552307128907	413.4085693359376	340.2499694824219	-383.6500244140626	140.189697265625	150.8558807373047	-375.9871520996094	162.4148406982422	148.6377563476563	-291.8800964355469	87.71369934082033	152.6952362060547	-321.3781433105469	203.7300109863282	25.03850173950196	-271.6083679199219	213.1973571777344	36.01420974731446	-330.4555358886719	169.7720336914063	34.37531661987305	-376.3680419921876	597.4358520507814	813.151306152344	-58.17447662353517	733.7043457031251	467.2053833007814	-123.9460144042969	734.4715576171876	466.9298400878907	-289.0947875976563	722.8682250976564	394.0617675781251	-122.8055877685547	799.6071777343752	403.1121826171876	-190.5234069824219	778.081237792969	70.97605133056642	-172.7049407958985	802.5422363281252	83.65090179443361	-258.9804077148438	749.4729614257814	16.55306053161621	-235.4553222656251	935.6940917968752	38.75736236572266	-232.1192474365235	924.6695556640627	62.26660537719728	-179.5114135742188	881.0477294921877	34.13508224487305	-137.6805877685547	500.9844665527345	1378.378295898438	-275.4805908203126	425.1024169921876	1152.8505859375	-292.9851989746094	682.0755615234376	1160.539916992188	-264.9300537109376	616.5601196289064	1298.614624023438	-265.6532287597657	434.7687988281251	1202.742309570313	-400.3298339843751	466.2696228027345	1335.9150390625	-371.0506591796876	520.8712158203126	1345.714477539063	-440.9488525390626	572.5508422851564	1354.96728515625	-449.2838745117189	697.5324707031251	1084.749633789063	-552.5359497070314	655.9177246093751	1032.48291015625	-486.9031677246095	669.2589111328126	1043.152954101563	-532.7541503906251	889.1461181640627	933.195495605469	-500.8266601562501	851.3452148437502	902.9400634765627	-565.9904174804689	958.3702392578127	893.9024658203127	-524.7448120117189	894.2189941406252	864.635925292969	-589.7751464843751	409.9004211425782	1181.419799804688	-192.8133850097657	453.1989135742189	1316.316528320313	-196.114730834961	489.2063903808595	1327.593017578125	-125.7501373291016	535.1417236328126	1330.521850585938	-100.8207321166992	422.3792114257814	1042.397094726563	-13.58483695983887	435.450897216797	1010.711120605469	-96.1364440917969	412.8551330566407	1017.36279296875	-48.49932861328126	439.6602478027345	797.024353027344	48.3561248779297	381.7093200683594	821.8048095703127	69.8320999145508	409.5671997070314	726.2530517578126	79.17223358154298	337.5146179199219	791.5428466796877	70.85275268554689	
50	0.49	652.8192749023439	854.5174560546877	-414.385711669922	436.2242736816407	926.4541015625002	-315.6802978515626	445.2871093750001	920.1048583984377	-200.5221252441407	680.9660644531251	886.5623168945315	-147.37255859375	523.1591186523439	807.7442626953127	-481.8155212402345	456.0027465820314	437.2650756835939	-434.7648925781251	467.5139770507814	412.885223388672	-278.1744384765626	406.7205505371095	402.9886474609376	-433.0300903320314	440.1612243652345	336.3074340820313	-386.8449707031251	157.8592224121094	160.3403015136719	-376.8893737792969	180.8173217773438	156.1775512695313	-293.2930297851563	106.7660598754883	166.2406768798828	-321.8446044921876	210.6212921142579	28.69306945800782	-272.7889404296876	220.2511138916016	38.19970703125001	-331.8535156250001	177.7344818115235	40.25553131103516	-377.1071777343751	617.7918090820314	816.3598632812502	-57.1036949157715	751.3944702148439	467.9065246582032	-123.2879867553711	752.5567016601564	468.578094482422	-288.0271911621094	739.0635375976564	394.9888000488282	-122.2212905883789	815.4268188476565	401.798065185547	-190.3425598144532	780.6186523437502	69.88442993164064	-173.3566131591797	805.2988891601565	81.35832977294923	-259.7009582519532	749.0404052734376	16.43554496765137	-235.4137878417969	937.2244262695315	30.62485694885255	-232.9287567138672	927.4075927734377	55.07246780395509	-179.9214019775391	882.0767211914065	29.42067527770997	-137.7867431640625	520.6750488281251	1379.017456054688	-273.2000122070313	444.8733215332032	1153.314086914063	-291.2090148925782	702.1398315429689	1161.444580078125	-263.9065551757813	636.3193359375001	1299.3876953125	-263.9504089355469	454.0221557617189	1203.2998046875	-398.3025817871095	485.4966735839845	1336.433471679688	-368.6376953125001	539.6971435546876	1346.3349609375	-438.9688110351564	591.3767089843751	1355.659423828125	-447.5454101562501	714.9454956054689	1084.411987304688	-550.3707275390626	673.2191162109376	1032.564575195313	-484.1453247070314	685.9133300781251	1043.30908203125	-530.2845458984376	903.7546386718752	928.629821777344	-502.3429565429689	864.2151489257815	899.5086669921877	-566.7698364257814	971.400085449219	888.0510864257815	-527.5093383789064	905.636413574219	860.524841308594	-591.3552856445314	429.953582763672	1181.201782226563	-190.6691436767578	473.1571044921876	1316.1552734375	-193.8562469482422	509.4376220703126	1327.042724609375	-123.4318618774414	555.1228637695314	1330.330078125	-98.74694824218753	445.1770935058595	1040.9013671875	-11.80624675750733	459.7745666503907	1008.835815429688	-94.33845520019533	435.9884033203126	1015.538818359375	-46.7959327697754	465.6845703125001	796.038024902344	50.6202850341797	407.3127746582032	819.9119262695315	71.89540863037111	436.5360717773439	724.8420410156251	81.52893066406251	363.6751403808594	788.9377441406252	72.70034790039064	
